<?xml version="1.0" encoding="utf-8" standalone="no"?>
<!DOCTYPE svg PUBLIC "-//W3C//DTD SVG 1.1//EN" "http://www.w3.org/Graphics/SVG/1.1/DTD/svg11-flat-20030114.dtd">
<!-- Created by SVGDeveloper 1.0 -->
<svg width="530" height="528" version="1.1" xmlns="http://www.w3.org/2000/svg" xmlns:xlink="http://www.w3.org/1999/xlink" fill="none" stroke="#3300FF">
<path id="1" d="M308 6L310 4L314 6L317 9L320 10L323 10L325 13L324 17L326 21L324 23L322 27L322 30L322 33L321 34L322 38L323 42L326 44L329 48L331 51L329 55L332 55L333 58L337 59L340 61L344 64L346 66L349 72L354 74L358 76L363 79L366 82L368 86L370 88L368 90C366 90 364 92 364 92L362 94L358 98L356 101L355 104L353 105L350 105L347 105L344 105L343 108L344 110L345 115L345 119L344 121L341 121L339 120L334 123L330 126L326 131L326 134L326 138L325 142L324 145L324 150L325 152L326 155L326 157L326 160L327 162C325 163 324 166 324 166L320 166L319 170C320 170 322 172 322 172L326 174L326 176L326 179L326 181L324 182L324 186L324 190L325 192L326 194L326 200L327 202C327 202 328 203 328 204C328 204 330 208 330 209C330 210 330 213 330 213L330 217C330 217 331 219 331 220L331 222L330 224C330 224 330 226 329 227C329 228 328 230 328 230L330 232L330 234L330 237L332 238L334 240L337 242L339 244C340 245 339 247 339 247L338 250L336 253C334 254 333 256 333 256L333 257C332 258 330 260 330 260L329 263C327 264 324 266 324 266L323 267L320 268C319 267 318 264 318 264L317 263L315 263L311 262L308 263L306 264C304 265 300 263 300 263L298 260L295 260L294 258L290 257L286 258L284 259L282 260C280 261 277 262 277 262L276 260C274 260 273 259 273 259L270 257L268 256L266 254L264 252L263 250L263 246L263 244L262 243C261 243 258 241 258 241L253 240C251 241 249 238 249 238L248 235C248 235 247 234 246 234C245 233 243 230 243 230C240 229 238 228 238 228L236 227L233 224L230 223L228 222L225 224C224 224 224 222 224 222L224 219L224 217C226 216 227 215 227 215L225 211L225 208L224 206L225 203L226 201L228 199L226 196L225 194L227 192C227 192 229 191 229 190C230 190 232 188 232 188L234 188L239 188L242 189L242 192C243 193 244 193 244 193L246 196C248 196 249 196 249 196C251 196 251 195 251 195C253 196 254 194 254 194L256 195L258 194C260 194 261 195 262 195L263 194L264 192L266 192L270 193L272 194L276 193L278 192C278 192 279 189 280 189L280 187C280 186 279 185 279 185L279 184L278 183L277 181C276 180 275 179 275 179L273 179C272 180 270 179 270 179L268 177L268 175C268 175 270 173 270 172L272 170L275 169L276 166L277 164L279 163L281 160C281 159 283 157 283 157L283 153L284 149C284 148 287 146 288 146L291 146L293 144L293 142L290 141C288 140 286 140 286 140L286 138L284 136L281 136L280 134L279 132L276 130L273 129L273 128L275 125L275 123C275 123 274 121 275 121C276 121 277 120 277 120C277 119 276 117 276 116C277 116 278 115 278 115L278 110C278 109 278 108 278 108L276 106L276 103L273 102L271 100L269 98L266 97L264 95L262 94L258 90L258 86C256 85 253 84 253 84L252 81C252 81 250 80 250 79C249 78 249 77 248 76L246 74L242 70L237 63L234 60L232 56L232 54C232 53 232 50 233 50C233 49 234 47 235 47C236 46 238 46 238 46L241 44C241 44 243 43 244 43C244 44 247 46 247 46L248 50L251 54C252 54 254 55 254 55C255 55 259 57 259 57C259 57 261 56 262 56C264 56 266 57 266 57L268 54L266 52L264 48L263 46L262 44L260 41L260 38L261 35L264 31C264 31 266 30 267 30C268 30 271 30 271 30C271 30 273 31 274 31C274 32 277 32 277 32L280 31L284 29L288 28L289 26C291 26 293 28 293 28L296 30L298 32L301 30C301 30 301 28 302 27C302 27 302 26 302 25C302 24 302 22 302 22L302 19C304 18 302 15 302 15C302 15 301 13 301 12C301 12 301.2929 9.707107 302 9C303 8 308 6 308 6Z" fill="none" fill-opacity="0" stroke="#3300FF" />
<text id="1" x="278" y="93" xml:space="preserve" font-family="微软雅黑" font-size="12" fill="none" fill-opacity="0" stroke="#3300FF">
huairouqu</text>
<path id="2" d="M372 91L372 93L371 95L374 96C375 96 378 98 378 98L380 100L380 104L380 106L384 108L386 109L388 112L390 116L394 119L396 120L400 120L402 121L404 122C405 122 406 121 407 121C408 121 410 119 410 119L414 119L419 119C419 119 423 118 424 118L428 118L430 117L435 119L438 120L442 119L444 120L449 120L452 122L456 124L460 125L462 126L465 128L469 130L472 132L474 133L480 130C480 130 482 128 483 128C484 128 488 126 490 126C491 126 497 124 497 124L504 124L508 124C509 124 511 125 511 125L514 127L517 129L520 128L523 130L524 134L524 136L523 138L522 140L520 142L516 143L515 141L512 138L510 139C510 139 510 140 510 141C510 142 510 143 510 143C510 143 508.9702 143.7575 508 144C506 144 502 144 502 144L502 146L502 148L502 152L503 154C503 154 504 157 504 158L504 162L502 164L499 164L496 164C496 164 495 166 494 167C494 167 493 168 492 168C491 167 488 167 488 166L486 163L482 160L479 162L476 162L474 164L470 165L468 166L464 168L462 170L460 172L461 175L461 178L462 179L462 182L460 183C458 183 456 183 456 183L452 183L450 185L450 186L453 190L454 193L455 194C455 195 456 197 457 198L459 199L461 200L463 202L463 205L462 208L461 210L460 212L460 216L460 218L458 221L456 224L454 225C452 226 450 226 450 226L448 226L446 225C444 224 442 224 442 224L438 225L434 227L431 228L427 230C426 231 423 231 423 231L420 232L418 234L414 235L412 236L409 237L404 237L401 240C400 241 399 242 399 242L400 246L398 248L397 250L394 252L391 254L388 256L387 259L385 261L384 263L386 266L386 269C386 269 388 270 387 270C386 270 386 271 385 271C384 272 382 272 382 272L379 273C378 274 374 272 374 272C374 272 373 271 372 270L371 268L370 264C370 264 368 263 368 262L366 259L366 258C366 257 366 256 366 256L366 254C364 253 362 250 362 250L361 248L360 245C358 245 356 247 356 247C355 248 355 251 355 251L353 252L352 253C352 253 350.9363 253.6489 350 254C348 255 346 255 346 255L344 256L343 257C341 258 340 257 340 257C340 257 338 258 337 258L334 256L334 254C335 253 337 250 337 250C338 250 338 248 338 247C339 246 340 245 340 245L339 244L338 242L336 241L333 239C331 238 330 236 330 236L330 234L330 232L328 230L328 228L330 224C330 223 331 221 331 221L330 218L330 216L330 213L330 208L330 207L328 204L326 201L326 199L326 195L326 192L324 190L324 186L324 183L324 181C326 180 326 174 326 174L323 172L321 171L319 169C319 169 318.1425 166.5145 319 166C320 165 324 166 324 166L327 162L326 160L326 155C326 154 324 150 324 150L323 147L324 144L325 141L326 138L326 134L326 131L328 128L330 126C330 126 332 124 333 124C334 123 336 121 336 121L338 120L342 120C344 121 345 121 345 121C345 120 345 117 345 117L345 114L344 111L343 108L343 106C344 105 346 105 346 105L350 105L353 104C355 104 356 100 356 100L357 99L359 96C361 95 363 93 363 93L365 91C367 90 372 91 372 91Z" fill="none" fill-opacity="0" stroke="#3300FF" />
<text id="2" x="355" y="180" xml:space="preserve" font-family="微软雅黑" font-size="12" fill="none" fill-opacity="0" stroke="#3300FF" baseline-shift="baseline">
miyunxian</text>
<path id="3" d="M455 225L455.75 225.25L458 226L460 228L462 232L462 235L465 236L467 239L466 241L466 243L466 245L469 245L470 247L471 250L472 252C472 253 472 255 472 255L475 252L479 252C481 253 482 256 482 256L483 259L484 262L484 264L484 267L483 268L486 270L489 270L492 271L494 272L493 276L494 278L494 282L497 283C498 283 500 284 500 284L500 286L499 288L496 290L494 290L491 290C489 291 487 291 487 291L487 294L487 298L486 300L484 302C482 302 479 302 479 302L477 300C477 300 476 301 476 302L474 304L472 306L470 309C469 310 468 311 468 311L467 312L466 313L463 312L460 311C458 312 456 315 456 315L453 315L451 317C451 317 450 319 450 320L450 323L449 325L446 324L443 323L440 323L438 324L434 326L430 326L426 324L422 324L420 323C420 323 420 325 419 325C418 325 417 326 417 326L414 326L414 328L412 330L411 332L409 334L406 333L404 335L402 338C400 338 398 339 397 338C396 338 392 336 392 336C392 336 390 335 390 334L387 332L385 330C385 330 387 329 387 328C387 328 388 326 390 326C392 325 394 324 394 324L394 322L394 320C394 320 394 319 393 318L393 316C392 315 392 315 392 314C392 313 391 310 391 310C391 310 391 309 391 308L390 306L390 302C390 301 391 298 391 298L391 296L390 294L388 292C387 291 386 288 386 288L384 285L383 282L383 278L384 276L385 274L385 272L387 270L386 268L386 266L386 264L384 262L386 261C386 261 388 259 388 258L388 256C388 256 388 256 390 255C392 254 393 253 393 253C393 253 395 250 396 250L399 248L400 246L400 244L399 242L402 238L404 237C404 237 406 237 407 237C408 237 409 236 410 236C411 236 413 236 414 235C416 234 418 234 418 234C419 233 421 232 421 232C421 232 423 231 424 231L426 231C427 231 429 228 429 228L434 228L436 226C436 226 438 226 439 226C440 225 443 224 443 224L446 225L448 225L450 226L453 225Z" fill="none" fill-opacity="0" stroke="#3300FF" />
<text id="3" x="407" y="279" xml:space="preserve" font-family="微软雅黑" font-size="12" fill="none" fill-opacity="0" stroke="#3300FF" baseline-shift="baseline">
pingguqu</text>
<path id="shunyi" d="M277 262C277 262 281 261 282 261C283 260 285 259 285 259L288 258L290 257L293 258C295 259 295 260 295 260C297 260 299 261 299 261L300 262L302 263L305 264C307 263 309 263 309 263L311 262C312 262 315 263 315 263L317 263L318 265L319 267L320 268L322 267C322 267 323 266 324 266C325 266 327 265 327 264L329 263L330 259L332 257L334 257L337 257L340 257L342 258L344 256C346 255 348 256 348 256L350 253L353 253L354 252L355 248C355 248 355 247 356 247C357 247 359 245 359 245C360 245 361 247 361 247L362 250L363 251L365 253C366 254 366 257 366 257L367 260L368 262L369 264L371 266L371 269L372 270L374 272L376 273C376 273 378 273 379 273L382 272L385 271L385 273L384 275L384 277C384 277 383 279 383 280L384 283L385 285C385 286 386 288 386 288L387 290L388 293L390 294L390 296C391 297 391 298 391 298L390 300L390 302L390 305L390 308L392 310L392 313L393 316L393 318L394 320L394 322L394 324L393 325L390 326L388 327C387 328 386 329 386 329C385 330 385 332 385 332L384 333C383 334 381 334 381 334L378 332C376 332 374 332 374 332L370 332L368 333L366 334L364 335C363 334 361 333 361 333L358 331C356 331 354 333 354 333L354 334L353 337L352 338L349 339L345 339C344 339 342 340 342 340C341 341 338 341 338 341L336 340L334 340C333 340 329 340 329 340L327 342L324 342C323 343 320 343 320 343L317 342L315 341L312 340L307 338L304 338L303 337C302 338 302 339 302 339L302 340L300 340L297 337L294 337L293 335L290 333L289 331L289 330L288 328L287 326L284 325L281 324L277 321L273 320L270 320L268 320L266 319L266 317L267 316L268 315L270 314L271 311C271 311 270 310 271 310C271 309 272 309 272 309L270 307L270 304L270 302L270 299L270 297L270 295L269 293C269 293 269 292 269 291C270 291 271 289 271 289C270 288 270 287 270 287L270 285L271 284C270 283 269 282 269 281L269 279L269 277L269 274L270 272L271 270L271 268L273 266L274 265C275 264 276 264 276 264C277 263 277 262 277 262Z" fill="none" fill-opacity="0" stroke="#3300FF" />
<text id="shunyi" x="295" y="300" xml:space="preserve" font-family="微软雅黑" font-size="12" fill="none" fill-opacity="0" stroke="#3300FF" baseline-shift="baseline">
shunyiqu</text>
<path id="4" d="M262 94L264 95L266 97L268 97L271 100C272 101 273 102 274 102C275 102 276 103 276 103L276 105L276 107L278 108L278 110L278 112L278 114C278 115 277 115 277 115L277 116L277 118L277 120C276 121 275 121 275 121L275 122L275 124L275 126L273 127L273 129C274 130 277 131 277 131C279 132 280 133 280 133L281 135C282 136 283 136 283 136C285 137 286 137 286 137L286 139L286 140C288 140 289 141 289 141C291 141 293 142 293 142L293 143L293 144L292 145L290 146L288 146C287 146 285 147 285 147L285 148L283 150L283 152L283 154L283 156L283 157L282 159L280 160L280 162C279 163 277 164 277 164L277 165C276 165 276 167 276 167L276 169L274 169C272 170 271 171 271 171L270 173L268 174C268 174 268 175 268 176L269 178L271 179L273 180L275 179L276 180L277 182L279 184L279 186L280 187L280 189C279 190 279 191 279 191L277 193L275 193L273 193L271 193C269 193 268 192 268 192L266 192L264 192L263 194C262 195 260 195 260 195C260 194 259 194 259 194C258 194 256 194 256 194C255 194 253 194 253 194L253 195C252 195 251 195 251 195L249 195C248 195 246 196 246 196L245 194L244 192L242 193L242 192C242 191 242 190 242 190L241 189C240 188 237 188 237 188L233 188C231 188 230 189 230 189L229 190L227 192L225 193L225 194L227 196L227 198L228 199L226 200L225 202C225 202 224 203 224 204L224 206L225 208L225 210L225 212L227 214L227 216C226 216 224 217 224 217L224 219L224 221L224 223L225 224L225 226L224 227L222 228C220 228 219 228 219 228L218 227C216 227 215 227 215 227L214 226L213 227L212 228L211 229L209 229L207 227C206 227 205 226 205 226C205 226 204 227 203 228L200 228L200 230C199 230 196 230 196 230C195 231 194 232 193 232L191 232C190 233 189 235 189 235L189 237L188 239L187 240L187 243L187 246L187 248L185 248L183 248C182 247 182 245 182 245L180 244L178 244C177 244 177 242 177 242L175 243C174 243 172 242 172 242L172 240L169 241L167 241L167 242L166 244L166 245L164 246L162 247L160 247C160 247 159 246 159 245L158 244L157 242L155 241L154 239C154 239 153.9285 238.3714 153 238C152 238 150 238 150 238L150 239C149 240 148 240 148 240L146 242L146 243L147 244L147 245L147 247L147 249L149 250C149 250 149 251 150 252L149 254L147 254L147 255L148 257L148 259L147 261L145 262C144 263 144 264 144 264L143 266C142 266 140 267 140 267L138 267C136 268 135 269 135 269C134 269 133 267 133 267L132 266L132 265C131 265 132 263 132 263C133 262 135 262 135 262C137 262 136 260 136 260L135 259L134 255L133 253L133 251L132 250L132 249C131 248 130 247 130 246C129 245 128 244 128 244L128 242L128 241L128 239L128 237L126 237L124 236L120 236L116 235L114 235C113 234 112 233 112 233L110 231C110 230 107 227 107 227L105 224L103 220L101 217L99 215L97 211L95 210L92 209L90 208L89 206L89 204L90 203L91 200C91 199 90 198 90 198L90 197C89 196 88 195 88 195C88 194 88 193 88 193L87 192L85 192L84 190C84 190 83 188 83 186C83 185 82 184 83 183C83 182 83 181 83 181L84 178C84 177 86 176 86 175L88 171C88 171 87 170 89 170C91 170 92 168 92 168C92 168 92 167 94 166C95 165 97 164 97 164C98 164 96 164 99 163C102 163 103 163 103 163C104 162 103 160 103 160C103 160 104 160 104 159C105 158 106 156 106 156C107 156 108 155 110 154C111 153 113 153 113 153C114 153 114 153 116 153C117 153 119 152 119 152L121 152C121 152 122 151 122 150C122 150 122 149 123 148C124 148 125 148 125 148C126 147 128 146 128 146C129 145 130 145 131 145L134 145L136 146L140 146L144 147L146 149L148 151L149 155C150 154 151 153 151 153C152 153 152 151 152 151C154 150 155 150 155 149C156 149 156 149 157 149C158 149 160 149 160 149C162 149 163 149 164 149L166 147L167 145L169 143C169 143 170 142 171 142C172 142 174 142 174 141L173 139C173 139 173 137 174 137C175 137 176 137 176 136C177 136 178 135 178 135C179 134 180 134 181 134C181 133 182 132 183 131C183 131 183.0385 128.7253 184 129C185 129 189 130 189 130C189 130 190 128 190 127C190 126 190 124 190 124L191 119L192 117C192 117 194 114 195 114L198 111C198 111 197 110 197 109C198 108 198 108 199 107C200 107 202 105 202 105L202 103C202 103 202.2 101.6 203 101C205 100 205 98 205 98L205 96L206 95C206 94 207 93 208 92C209 92 210 90 210 90C211 90 212 89 213 89L216 91L218 92L220 95L221 97L222 98L224 99C225 99 226 99 226 99L227 97C227 97 227 96 229 96C232 96 232 95 234 96C235 96 237 96 238 96C240 96 241 96 242 96C244 96 244 95 244 95C245 95 247 94 247 94L250 93L253 93C253 93 254.0862 93.59386 255 94C257 95 258 96 258 96C258 96 259 96 260 96C261 96 261 96 262 96L262 94Z" fill="none" fill-opacity="0" stroke="#3300FF" />
<text id="4" x="135" y="190" xml:space="preserve" font-family="微软雅黑" font-size="12" fill="none" fill-opacity="0" stroke="#3300FF" baseline-shift="baseline">
yanqingqu</text>
<path id="changping" d="M132 266L133 268C134 268 136 269 136 269L137 267C139 267 141 267 141 267C141 266 143 266 143 266L143 264C143 263 145 262 145 262L147 261L148 258L148 256L147 255L147 253C147 253 148 254 149 254L150 252L150 251L148 250L147 249L147 247L147 245L146 243C146 243 146 242 146 241C147 241 148 241 148 240L150 239L150 238L153 238L155 240C155 240 156 241 157 242C158 242 159 245 159 245C159 245 160.0136 245.8356 161 246C163 246 165 245 165 245L166 244C166 243 167 241 167 241C168 241 169 241 170 241L172 240L173 241C172 242 174 242 174 242C176 243 177 241 177 241L178 243C179 244 181 244 181 244L182 246L183 247C185 248 186 248 186 248C187 248 187 244 187 244L187 242L187 240C187 240 187 239 188 239C188 238 189 238 189 238L189 237L189 235C189 234 190 232 190 232C191 232 192 232 192 232C193 232 193 232 194 232L195 231L197 230L200 230L200 228C201 228 203 228 203 228L204 227C204 227 204 226 205 226L207 227L209 228L211 229C212 228 212 227 213 227L214 226C216 227 217 227 217 227C218 227 220 228 220 228L223 227C223 227 225 227 225 226L225 225C225 224 225 223 225 223C226 223 228 222 228 222C230 222 230 223 232 223C233 224 233 224 233 225C234 225 235 226 235 226L236 227L239 229C241 230 243 229 243 230L244 231C245 232 246 234 246 234L248 235L249 237L250 239L252 240L255 240L258 242L260 242C260 242 261 243 262 243L264 245C264 245 264 246 264 247C264 248 263 251 263 251L265 253L266 254C266 254 268 255 268 256L271 257L273 259L275 259L277 261L278 262L277 264L275 265L273 266L272 268C271 268 271 270 271 270C271 270 270 271 270 272C270 273 269 274 269 274C269 274 269 276 269 277L269 279L269 282L270 283L271 284C270 285 270 287 270 287L271 289L271 290C270 290 269 291 269 291L269 293L270 295L270 297L270 299L270 302L270 305L270 307L272 309C271 310 271 311 271 311L271 313L270 314L267 315L266 316L266 318L266 319L265 321L264 323L263 325C262 326 259 327 259 327C257 327 256 327 256 327L255 328L254 330L252 332L250 333C249 333 246 332 246 332C246 331 246 330 246 329L246 328C246 327 246 326 246 326C246 326 245 324 245 325C244 325 242 324 242 324L240 324C239 324 237 325 237 325L235 326L232 327C230 327 229.0738 326.9203 228 326C227 325 226 324 226 323C225 322 225 321 225 320C224 320 224 319 224 319L221 317C221 317 219 314 218 314L216 314L214 312C213 311 212 310 212 310C212 309 212 309 212 308C213 307 213 306 212 306C212 305 211 304 211 304C211 303 209 301 209 301C207 301 205 301 205 301C204 300 202 298 202 298C201 298 199.9939 297.1104 199 297C197 297 196 298 196 298L194 299L193 301L193 302L193 304L192 306C191 306 188 308 188 308L185 309L182 309L179 309L175 309L173 309L170 309L169 310C169 310 168 311 168 312L166 314L165 316L164 318L163 319C163 319 162 320 161 320C160 320 158 321 158 321L156 321L153 322C151 322 149 321 149 321C147 321 145 321 145 321C143 320 143 320 142 319C142 319 140.8741 316.4857 140 316C138 315 137 314 137 314L136 313C134 312 133 311 133 311L131 310L130 308C130 308 129 307 129 306L128 303L126 302L124 301L121 300L118 300L116 300C115 301 113 301 113 301C113 301 114 301 113 300C112 299 112 298 112 298L112 295L111 294C111 293 112 292 112 292C113 291 113 290 113 290L113 289L114 286C118 286 119 286 119 286L120 283L121 280L121 278L123 274L125 272L127 270L129 269L131 268C131 268 132 265 132 266Z" fill="none" fill-opacity="0" stroke="#3300FF" />
<text id="changping" x="170" y="275" xml:space="preserve" font-family="微软雅黑" font-size="12" fill="none" fill-opacity="0" stroke="#3300FF" baseline-shift="baseline">
changpingqu</text>
<path id="mentougou" d="M117 300L120 300L122 301L125 301L127 303L129 306L130 309L131 310C131 310 134 311 134 312L137 314L138 315C139 316 140 317 140 318C141 318 143 320 143 320L145 321L148 321L151 321L154 322L156 322L159 321C159 321 160 320 161 320L163 320L164 322L166 324L168 326C168 327 169 329 169 329L170 332L171 335L171 337L176 336L178 336L181 336L182 337L185 338L188 338L190 340L192 341L194 343L194 345L194 347L194 348L192 349L190 350L188 348L186 349L184 350L181 349L179 351C179 351 178 351 179 352C179 353 179 355 179 355L179 357C177 358 177 359 177 359C177 360 177 361 177 361L179 361L180 363L179 364L179 367L179 368C181 369 182 371 182 371L184 374L186 376C186 376 186 378 187 378C188 379 189 381 189 381C190 381 192 383 192 383L190 383L188 383L185 384L182 385L179 386L176 387L174 389C174 389 173 389 172 389C171 389 170 388 170 388C169 388 167 388 167 388L167 389L167 391L168 393L168 396L167 398L167 399C165 399 163 398 163 398L161 397C161 397 160 397 159 397C157 397 156 397 155 397L153 396L152 395L151 393L150 391C150 390 150 388 150 388L149 386L146 387L143 386L141 384L140 382L139 381L138 379L136 378C136 377 136 375 136 375L134 374L131 374L128 374L125 374L122 374L120 375L118 376L117 378L115 378L112 378L109 377L106 376L104 373C103 373 100 372 99 372L94 372L91 372L90 374L87 375L82 376L79 377L74 379L71 380C71 381 69 382 69 382L67 383L65 385L64 386L61 387L59 387C58 387 56 389 56 389L56 392L57 394L57 396L55 396L54 398L53 400L52 401L51 402L50 404C49 404 48 405 48 405L46 405C44 405 42 405 42 405C40 404 37 402 37 402L34 399L31 397L30 395C31 394 31 392 31 391C32 390 33 387 33 386L34 384L32 383L30 382C30 381 30 380 30 380C30 380 29 379 30 378C31 378 33 376 33 376L33 375C31 374 28 372 28 372L25 369L24 367L20 366L17 366L16 364L16 362L15 360L13 360C13 360 12 359 12 358C12 357 12 356 12 356C12 355 12 352 12 352L13 349L14 347L16 345L17 341C17 341 17 341 18 340C19 339 19 337 21 337L22 334C22 334 23 333 24 332C25 332 26 331 26 331C27 331 27 331 28 331C29 330 30 328 30 328C30 328 30 327 31 327C33 327 34 326 34 326C34 325 34 324 34 324C35 323 35 321 35 321L38 320C38 320 39 319 39 318C40 317 41 316 41 316L44 315C44 315 45 313 46 313L49 313L51 314L52 312L53 310L54 309L55 308C55 308 56 307 57 307L59 308C59 308 60 309 61 309C62 309 65 309 65 309L66 305C66 305 68 305 68 304C69 304 69 303 71 303C72 303 75 303 75 303L77 302L80 303L82 304L84 305L87 304L88 302L88 299L89 297L90 295C90 294 90 293 90 293C92 293 92.2067 292.6088 93 292C95 291 95.06088 290.3436 96 290C98 289 100 291 100 291L101 292L102 294L104 296L105 297L110 299L112 299C113 300 113.0333 301.2559 114 301C115 301 118 300 117 300Z" fill="none" fill-opacity="0" stroke="#0000FF" />
<text id="mentougou" x="60" y="344" xml:space="preserve" font-family="微软雅黑" font-size="12" fill="none" fill-opacity="0" stroke="#0000FF">
mentougouqu</text>
<path id="fangshan" d="M41 405C41 405 42 406 43 406C44 406 46 405 46 405C47 405 48 405 48 405C49 404 50 404 50 404L51 401L52 400C53 399 55 397 55 397L56 395L57 396L56 394L56 392L56 391C56 390 58 388 58 388L59 387L61 387L63 386C64 385 66 384 66 384L66 383L69 382L70 381C71 380 73 379 73 379L76 378C76 378 77 377 78 377C79 377 81 376 81 376L84 376L86 375C88 375 90 374 90 374L91 372C92 372 95 372 95 372L97 372L100 372L103 372L104 374L106 376L108 376L111 378L113 378L115 378L117 378L118 376L120 374L122 374L124 374L127 374L131 374L134 374L136 375L136 377L136 379L138 379L139 381L141 383L142 385L145 386L147 386L149 386L150 387L150 389L150 392L151 394L153 396L155 397C156 397 158 397 158 397C159 397 161 397 161 397L162 398L164 398C165 398 167 399 167 399L168 400L170 402L171 405L172 407C172 407 171 408 171 409L171 411L171 413L171 415C172 416 175 416 175 416C175 417 177 417 177 417L179 418L181 419L180 420L180 422L182 423L184 423C185 424 187 424 188 424L191 422L194 420L197 418L200 417C202 416 203 413 203 413L204 411C204 411 204 410 205 409L207 406C209 407 212 409 212 409L213 411L214 413L214 414L212 416L211 417L211 419L212 421L214 424L213 427L212 429L211 431C211 432 210 434 210 434L210 436L210 439C210 439 209 440 209 441L207 442L206 445L205 447L205 449L204 451L204 456L204 458L205 460L205 464L205 467L205 470L205 474C205 474 206 475 206 476C206 476 207 478 207 479L207 481L205 483L204 485L202 486L198 485C196 484 195 483 195 483L194 482L192 484L189 485L186 487C184 487 181 487 181 487L178 487L176 486L172 486L168 486L166 486C165 486 162 486 162 486L159 485L157 484L155 482L153 482L149 482C147 481 146 480 146 480C144 481 143 482 143 482L142 484L141 486C141 486 140 487 139 487C138 487 136 485 136 485L134 483L132 481L131 479C130 479 130 481 130 481L130 484L129 486C128 486 126 487 126 487L125 488L123 490L121 491L120 493L118 493L115 492L113 493L110 495C110 495 109 496 110 496C110 497 110 499 110 499L110 501L110 504L109 505L106 506C105 506 101 505 101 505L98 505L96 503L93 502L90 501L87 500L85 498C85 498 83 497 83 496C83 495 81 494 81 493L78 490L76 487L75 485L73 484C73 483 72 481 72 481L74 478C74 478 74 478 73 477C72 476 70 474 70 474L67 474L62 474C62 474 61 475 60 475L56 476L52 476L49 476L46 475L44 473C44 473 43 473 42 472C41 471 40 470 40 470L39 471L38 472L36 474L33 475L31 475C30 475 29 474 29 474L29 472L28 469L29 465C29 464 30 463 30 463C31 462 31 460 31 460L31 458L29 457L26 458L23 457L21 456C21 456 22 454 22 453C22 452 23 451 23 451L23 450C23 450 22 448 22 447C22 446 23 445 23 445L24 442L24 437L25 434L24 430L24 429L20 429L19 428C18 428 17 429 16 428C16 427 12 425 12 425L10 423C10 423 7 421 7 420C7 420 6 419 6 418L7 413L9 412L13 411C13 411 14 411 15 411C16 411 20 411 20 411C21 410 22 408 22 408L24 407L26 408L28 408L31 409C31 409 32 409 33 409C34 409 35 409 35 409L38 409L41 407L41 405Z" fill="none" fill-opacity="0" stroke="#0000FF" />
<text id="fangshan" x="73" y="432" xml:space="preserve" font-family="微软雅黑" font-size="12" fill="none" fill-opacity="0" stroke="#0000FF" baseline-shift="baseline">
fangshanqu</text>
<path id="daxing" d="M214 413L217 413L219 413C219 413 221 413 222 413L224 414L225 416L225 418L227 419C228 419 229 420 229 419C230 419 230 416 230 416L230 414C230 413 232 412 232 412L234 411L237 411L239 413L241 415L244 417C244 417 245 418 246 418C246 418 249 418 250 417C251 417 252 417 253 417C254 416 255 417 256 416C258 415 259 413 259 413L257 410L255 409L253 409L250 410C248 411 247 411 247 411C245 410 244 408 244 408C244 408 245 406 246 406C247 406 249 405 249 405L252 406L253 405L256 402L258 401C258 401 260 402 261 403L264 405L267 406L270 406L275 404L278 404L281 402L283 403L283 407L284 409L284 413L283 415L285 418L285 420L284 423L285 424C285 425 286 428 286 428L286 432L286 435L286 438C288 439 291 439 291 439C291 439 294 438 295 438C295 438 298 438 299 438C299 437 301 436 302 436C303 436 305 435 305 435L308 436L309 439C309 439 310 441 310 442C311 442 312 444 312 444L314 447L316 448C316 448 317 450 317 451L317 452L319 452C319 452 321 452 322 452C323 452 324 453 324 453L326 454L326 456L325 457L325 460L326 462L327 464L329 466L330 468L330 471L329 474L328 475C327 476 326 477 326 477L324 479L322 479L319 477L317 479L315 480L310 480L307 479L305 478L303 476C303 476 302 475 301 474C301 473 300 471 300 471L297 470L293 470L291 471C291 471 292 473 291 474L289 476L286 477L284 478L282 477L281 479C281 480 280 483 280 483L279 486L278 488L276 490L276 491L276 493C276 493 274 493 273 493L270 492L269 495L269 497L268 498L265 499L262 500L261 501L259 503C259 504 258 505 258 505C257 505 255 504 255 504L253 502L251 501L251 503C251 503 253 505 253 506C253 506 254 507 255 508C255 509 257 509 257 510C257 511 260 512 260 512L262 515L263 517C263 518 262 519 262 520L262 523L262 525L260 526C259 526 257 526 257 526L255 525C255 525 253 525 252 525C251 525 247 525 247 525C247 525 245 525 243 525C242 525 240 526 240 526C239 526 237 526 237 526C236 526 234 524 233 524C232 524 230 521 230 521L226 517L223 514L220 513L216 512L213 511L212 509C212 508 212 507 212 506C212 506 212 502 212 501L211 498L210 495L209 493C209 493 209 491 209 490C209 489 209 488 208 488C208 487 205 484 205 484L207 481L207 479L206 477L206 475L205 474L205 468L205 464L205 460L204 458L204 455L204 451L205 450L205 447L206 444L207 442L209 441L210 439C210 438 210 434 210 434L212 429L213 427L214 423L213 422L212 419L211 417L212 416L213 415C213 415 214 412 214 413Z" fill="none" fill-opacity="0" stroke="#0000FF" />
<text id="daxing" x="221" y="457" xml:space="preserve" font-family="微软雅黑" font-size="12" fill="none" fill-opacity="0" stroke="#0000FF" baseline-shift="baseline">
daxingqu</text>
<path id="tongzhou" d="M302 338L303 337L304 338L307 338L309 339L312 340L314 340L316 341L318 342L319 343L321 343C323 343 324 343 324 343L326 342L328 341L329 339L331 339C331 339 333 340 334 340C335 340 336 339 337 340C338 340 339 341 339 341L341 340L342 341L343 344C343 344 343 345 343 346L343 348L343 351L343 353L342 356L341 358L342 359L344 363L345 365L345 367L345 371L345 374L346 377L346 380L346 382C348 383 349 384 349 384L351 385L353 385C355 386 355 388 355 388L357 390L359 393L362 394C362 394 364 395 365 395L367 395L369 397L371 398C371 398 371 398 371 397C371 396 371 395 371 394C372 394 373 394 373 394L375 394C376 394 378 396 378 396L379 398C379 399 380 401 380 401C380 401 380 403 380 404C380 405 381 407 381 407L383 409L386 410L387 412L386 415L385 417L385 419L383 419L381 418C379 418 378 419 378 419L377 420L377 422L377 423L378 425L376 426C375 426 374 426 374 426L375 429L375 431L375 433L373 435L372 437C371 438 370 440 370 440L369 442L371 444L372 445L374 448L375 450L374 453C373 454 372 454 371 454C370 454 368 453 368 453L367 454L364 456C362 457 361 458 361 458C361 459 360 461 360 461L358 462L358 464L358 467L358 470L357 472L355 472L352 472C350 473 349 474 349 474L347 476L346 477L343 478C343 478 342 478 341 477C340 477 340 476 339 475L337 472L335 472L332 472L329 472L330 470L330 468L328 465L327 463L325 461L325 457L326 456L326 454L324 453L322 452L319 452L317 452L317 450L316 448L314 447L313 446C313 445 312 444 312 443C311 443 310 441 310 441L309 439L308 436C307 435 304 435 304 435L301 436C300 437 298 438 298 438L296 438L294 438L292 438L289 439L287 438C286 437 286 428 286 428L285 426L285 424L284 423L285 420C285 419 285 418 285 418L284 416L283 414L284 412L284 409L283 408C283 408 283 407 283 406L283 404L285 404C285 404 286 404 287 404C288 404 291 404 291 404L294 404L296 404C297 403 299 402 299 401C300 400 302 399 302 398C302 397 304 394 304 394C304 393 305 390 305 390L306 387C306 387 306 385 306 384C306 384 306 382 306 381C306 380 306 378 306 378L305 376C305 375 306 374 306 374L308 371L309 367C310 367 311 364 311 364C311 363 310 360 311 360C311 359 311 357 311 357L311 355L311 350L311 347L309 345L308 343L305 342L303 341L301 340C302 339 302 338 302 338Z" fill="none" fill-opacity="0" stroke="#0000FF" />
<text id="tongzhou" x="300" y="413" xml:space="preserve" font-family="微软雅黑" font-size="12" fill="none" fill-opacity="0" stroke="#0000FF" baseline-shift="baseline">
tongzhouqu</text>
<path id="haidian" d="M250 333L250 335L248 336L246 336L243 336L240 338L238 339C238 340 238 342 238 342C238 343 240 345 240 345L242 347L243 350L243 353L244 355L243 357C242 358 240 358 240 358L238 359L237 361L236 363L235 364L233 366L232 368L232 371L233 373L233 377L232 379L231 380C229 380 226 380 226 380L222 380L220 379L217 380L215 380C215 380 213 380 213 379L213 375L213 373L213 372L211 372L207 372L205 371C204 370 204 367 204 367L204 361L202 359L201 356C201 356 199 356 199 355L198 353C198 353 197 351 197 350L196 349L194 348L194 343L193 342L191 340L189 339C188 338 186 338 186 338C184 338 182 337 182 337L181 336L179 336L176 336L173 337L171 337L171 336L170 333L169 329L168 328L167 325L165 323L163 321L162 319L164 317L166 315C166 315 166 314 167 313C168 313 168 311 168 311L170 309L173 309L184 309L190 307L192 306L193 304L193 301L194 299L197 297C199 297 201 298 201 298L204 299L204 301L207 301L209 301L211 304C211 304 212 305 212 306C213 306 212 308 212 308L212 310L214 312L215 314L217 314C219 314 221 316 221 316L222 318L225 320L226 322L227 324L228 326L231 327L234 326L237 325L241 324L243 325C244 325 246 325 246 325L246 328L246 331C246 331 247 331 247 332C248 333 251 333 250 333Z" fill="none" fill-opacity="0" stroke="#0000FF" />
<text id="haidian" x="180" y="328" xml:space="preserve" font-family="微软雅黑" font-size="8" fill="none" fill-opacity="0" stroke="#0000FF" baseline-shift="baseline">
haidianqu</text>
<path id="shijingshan" d="M194 348L196 349L197 351L198 353L199 355L201 356L202 358L203 360L204 361L204 365C204 365 204 368 204 369C204 370 205 371 205 371L208 372L211 372L213 372L213 375L213 377L213 379L212 381C211 382 209 382 209 382L209 384L209 386L207 387L205 387L203 387C202 386 200 386 200 386C200 386 199 386 198 386L194 385L193 383L191 382L188 380L187 378L186 377L184 374L183 372L182 370L181 369L179 368L179 365L179 363C180 362 178 361 178 361C177 360 177 359 177 359C177 358 178 357 178 357L179 356L179 352L179 350L181 349C182 349 184 349 184 350C185 350 188 348 188 348C189 349 190 349 190 349L192 349C193 349 194 348 194 348Z" fill="none" fill-opacity="0" stroke="#0000FF" />
<text id="shijingshan" x="183.8" y="364" xml:space="preserve" font-family="微软雅黑" font-size="8" fill="none" fill-opacity="0" stroke="#0000FF" baseline-shift="baseline">
xjsq</text>
<path id="fengtai" d="M192 383L194 385L196 385L198 386L201 386L203 387L206 387L208 386L209 385L209 382L211 382L212 381C212 380 214 379 214 379C216 380 218 379 218 379L220 379L222 380L225 379L227 379L231 379C231 379 231 380 231 381L233 382L234 383L235 385L236 387C236 387 236 388 236 389C237 389 238 389 238 389L240 389C242 389 243 389 243 389C244 389 245 389 246 389C248 389 249 389 249 389L251 389L252 388C252 388 253 388 254 388C255 388 256 388 257 388L259 388C259 388 260 388 261 388C262 388 263 390 263 390L265 391L267 392C268 393 267 394 267 394L267 396C266 397 264 397 264 397C263 397 262 399 262 399L261 400L260 402L258 401C257 402 255 403 255 403L253 404C253 405 252 406 252 406L250 405C248 405 247 406 247 406L245 406L244 408L246 410L248 411L250 410L252 410L254 409C256 410 257 411 257 411L259 413L257 415L254 417L250 417C249 417 246 418 246 418L241 415L237 411L235 411L232 412L231 412L230 415L230 418L228 419C227 419 225 418 225 418L225 416L224 414L221 413L217 413L214 413L213 410L211 409L209 407L207 406L205 408L204 411L202 414L201 416L198 417L194 420L188 424L185 423L181 423L180 422L180 420C182 419 176 417 176 417L174 416L172 415C171 414 171 409 171 409L172 407L171 404L169 401L166 399L168 397C168 397 168 395 168 394L167 391L167 388L170 388L171 389L174 389C174 389 175 388 176 387L179 386C179 386 182 385 183 385L186 384L188 383C188 383 193 383 192 383Z" fill="none" fill-opacity="0" stroke="#0000FF" />
<text id="fengtai" x="180" y="400" xml:space="preserve" font-family="微软雅黑" font-size="12" fill="none" fill-opacity="0" stroke="#0000FF" baseline-shift="baseline">
fengtq</text>
<path id="chaoyang" d="M266 319L268 320L270 320L273 320L276 321L279 323L281 324L285 325L287 326L289 329L289 331L290 333L292 334L293 335L294 337L297 337L299 339L301 340L305 342L307 343L309 345L311 347L311 349L311 352L311 357L311 360L310 361L311 363L310 365L309 367L308 370L306 374L305 376L306 378L306 387L304 392L304 394L303 396L301 399L299 400L297 403L292 404L286 404L283 404L281 402L278 404L275 404L271 405L267 406L264 405L262 404L260 402L263 398L267 396L267 394L267 393L265 391L263 390L262 388L261 386L261 383L260 379L260 377L259 376L259 374L259 370L259 368L259 366L257 363L257 361L257 359L255 358L253 356L251 356L248 357L246 358C245 357 244 357 244 357L244 355L243 353L243 350L242 347L240 345L238 342L238 339L242 336L247 336L249 335L251 333L253 331L255 327L260 327L262 325L264 324L265 321C265 320 266 319 266 319Z" fill="none" fill-opacity="0" stroke="#0000FF" />
<text id="chaoyang" x="250" y="347" xml:space="preserve" font-family="微软雅黑" font-size="12" fill="none" fill-opacity="0" stroke="#0000FF" baseline-shift="baseline">
chaoyq</text>
<path id="bj-dcq" d="M246 358L249 357L250 356L253 356L255 358L256 359C257 359 257 361 257 361L257 363L258 364L259 366L259 368L259 372L259 375L259 376L255 377L254 378L251 377L249 378L248 378L247 376L246 373L246 370L246 368L246 365L246 363L246 360L246 359L246 358Z" fill="none" fill-opacity="0" stroke="#FFFF00" />
<path id="bj-cwq" d="M248 379L250 378L251 377L252 378L254 378L255 377C256 377 257 376 257 376C258 376 259 376 259 376L260 377L260 378L260 379L261 381L261 383L261 384L261 386L262 387L262 388L252 388L251 389L249 389L249 387L250 386L250 383L249 381C249 381 248 378 248 379Z" fill="none" fill-opacity="0" stroke="#FF0000" />
<path id="bj-xwq" d="M233 377L247 377L248 378L248 380L249 381L250 383L250 386L249 387L249 389L236 389L236 387L234 383L231 381L231 380L232 378L233 377Z" fill="none" fill-opacity="0" stroke="#CC0099" />
<path id="bj-xqq" d="M243 356L246 358L246 361L246 374L247 377L233 377L233 373L232 371L232 368L233 366L236 363L238 359L241 358L242 357L243 356Z" fill="none" fill-opacity="0" stroke="#99FF00" />



</svg>